<?xml version="1.0" encoding="UTF-8" ?>
<svg version="1.1" width="800" height="100" xmlns="http://www.w3.org/2000/svg" shape-rendering="crispEdges">
<rect x="20" y="0" width="10" height="10" fill="#D61405" />
<rect x="30" y="0" width="10" height="10" fill="#D61405" />
<rect x="60" y="0" width="10" height="10" fill="#D61405" />
<rect x="70" y="0" width="10" height="10" fill="#D61405" />
<rect x="100" y="0" width="10" height="10" fill="#D61405" />
<rect x="110" y="0" width="10" height="10" fill="#D61405" />
<rect x="180" y="0" width="10" height="10" fill="#D61405" />
<rect x="190" y="0" width="10" height="10" fill="#D61405" />
<rect x="300" y="0" width="10" height="10" fill="#D61405" />
<rect x="310" y="0" width="10" height="10" fill="#D61405" />
<rect x="420" y="0" width="10" height="10" fill="#D61405" />
<rect x="430" y="0" width="10" height="10" fill="#D61405" />
<rect x="540" y="0" width="10" height="10" fill="#D61405" />
<rect x="550" y="0" width="10" height="10" fill="#D61405" />
<rect x="640" y="0" width="10" height="10" fill="#D61405" />
<rect x="650" y="0" width="10" height="10" fill="#D61405" />
<rect x="740" y="0" width="10" height="10" fill="#D61405" />
<rect x="750" y="0" width="10" height="10" fill="#D61405" />
<rect x="20" y="10" width="10" height="10" fill="#D61405" />
<rect x="30" y="10" width="10" height="10" fill="#D61405" />
<rect x="60" y="10" width="10" height="10" fill="#D61405" />
<rect x="70" y="10" width="10" height="10" fill="#D61405" />
<rect x="100" y="10" width="10" height="10" fill="#D61405" />
<rect x="110" y="10" width="10" height="10" fill="#D61405" />
<rect x="180" y="10" width="10" height="10" fill="#D61405" />
<rect x="190" y="10" width="10" height="10" fill="#D61405" />
<rect x="300" y="10" width="10" height="10" fill="#D61405" />
<rect x="310" y="10" width="10" height="10" fill="#D61405" />
<rect x="420" y="10" width="10" height="10" fill="#D61405" />
<rect x="430" y="10" width="10" height="10" fill="#D61405" />
<rect x="540" y="10" width="10" height="10" fill="#D61405" />
<rect x="550" y="10" width="10" height="10" fill="#D61405" />
<rect x="640" y="10" width="10" height="10" fill="#D61405" />
<rect x="650" y="10" width="10" height="10" fill="#D61405" />
<rect x="740" y="10" width="10" height="10" fill="#D61405" />
<rect x="750" y="10" width="10" height="10" fill="#D61405" />
<rect x="0" y="20" width="10" height="10" fill="#D61405" />
<rect x="10" y="20" width="10" height="10" fill="#D61405" />
<rect x="20" y="20" width="10" height="10" fill="#D61405" />
<rect x="30" y="20" width="10" height="10" fill="#D61405" />
<rect x="40" y="20" width="10" height="10" fill="#D61405" />
<rect x="50" y="20" width="10" height="10" fill="#D61405" />
<rect x="120" y="20" width="10" height="10" fill="#D61405" />
<rect x="130" y="20" width="10" height="10" fill="#D61405" />
<rect x="180" y="20" width="10" height="10" fill="#D61405" />
<rect x="190" y="20" width="10" height="10" fill="#D61405" />
<rect x="220" y="20" width="10" height="10" fill="#D61405" />
<rect x="230" y="20" width="10" height="10" fill="#D61405" />
<rect x="280" y="20" width="10" height="10" fill="#D61405" />
<rect x="290" y="20" width="10" height="10" fill="#D61405" />
<rect x="300" y="20" width="10" height="10" fill="#D61405" />
<rect x="310" y="20" width="10" height="10" fill="#D61405" />
<rect x="320" y="20" width="10" height="10" fill="#D61405" />
<rect x="330" y="20" width="10" height="10" fill="#D61405" />
<rect x="380" y="20" width="10" height="10" fill="#D61405" />
<rect x="390" y="20" width="10" height="10" fill="#D61405" />
<rect x="400" y="20" width="10" height="10" fill="#D61405" />
<rect x="410" y="20" width="10" height="10" fill="#D61405" />
<rect x="480" y="20" width="10" height="10" fill="#D61405" />
<rect x="490" y="20" width="10" height="10" fill="#D61405" />
<rect x="500" y="20" width="10" height="10" fill="#D61405" />
<rect x="510" y="20" width="10" height="10" fill="#D61405" />
<rect x="560" y="20" width="10" height="10" fill="#D61405" />
<rect x="570" y="20" width="10" height="10" fill="#D61405" />
<rect x="580" y="20" width="10" height="10" fill="#D61405" />
<rect x="590" y="20" width="10" height="10" fill="#D61405" />
<rect x="640" y="20" width="10" height="10" fill="#D61405" />
<rect x="650" y="20" width="10" height="10" fill="#D61405" />
<rect x="700" y="20" width="10" height="10" fill="#D61405" />
<rect x="710" y="20" width="10" height="10" fill="#D61405" />
<rect x="740" y="20" width="10" height="10" fill="#D61405" />
<rect x="750" y="20" width="10" height="10" fill="#D61405" />
<rect x="780" y="20" width="10" height="10" fill="#D61405" />
<rect x="790" y="20" width="10" height="10" fill="#D61405" />
<rect x="0" y="30" width="10" height="10" fill="#D61405" />
<rect x="10" y="30" width="10" height="10" fill="#D61405" />
<rect x="20" y="30" width="10" height="10" fill="#D61405" />
<rect x="30" y="30" width="10" height="10" fill="#D61405" />
<rect x="40" y="30" width="10" height="10" fill="#D61405" />
<rect x="50" y="30" width="10" height="10" fill="#D61405" />
<rect x="120" y="30" width="10" height="10" fill="#D61405" />
<rect x="130" y="30" width="10" height="10" fill="#D61405" />
<rect x="180" y="30" width="10" height="10" fill="#D61405" />
<rect x="190" y="30" width="10" height="10" fill="#D61405" />
<rect x="220" y="30" width="10" height="10" fill="#D61405" />
<rect x="230" y="30" width="10" height="10" fill="#D61405" />
<rect x="280" y="30" width="10" height="10" fill="#D61405" />
<rect x="290" y="30" width="10" height="10" fill="#D61405" />
<rect x="300" y="30" width="10" height="10" fill="#D61405" />
<rect x="310" y="30" width="10" height="10" fill="#D61405" />
<rect x="320" y="30" width="10" height="10" fill="#D61405" />
<rect x="330" y="30" width="10" height="10" fill="#D61405" />
<rect x="380" y="30" width="10" height="10" fill="#D61405" />
<rect x="390" y="30" width="10" height="10" fill="#D61405" />
<rect x="400" y="30" width="10" height="10" fill="#D61405" />
<rect x="410" y="30" width="10" height="10" fill="#D61405" />
<rect x="480" y="30" width="10" height="10" fill="#D61405" />
<rect x="490" y="30" width="10" height="10" fill="#D61405" />
<rect x="500" y="30" width="10" height="10" fill="#D61405" />
<rect x="510" y="30" width="10" height="10" fill="#D61405" />
<rect x="560" y="30" width="10" height="10" fill="#D61405" />
<rect x="570" y="30" width="10" height="10" fill="#D61405" />
<rect x="580" y="30" width="10" height="10" fill="#D61405" />
<rect x="590" y="30" width="10" height="10" fill="#D61405" />
<rect x="640" y="30" width="10" height="10" fill="#D61405" />
<rect x="650" y="30" width="10" height="10" fill="#D61405" />
<rect x="700" y="30" width="10" height="10" fill="#D61405" />
<rect x="710" y="30" width="10" height="10" fill="#D61405" />
<rect x="740" y="30" width="10" height="10" fill="#D61405" />
<rect x="750" y="30" width="10" height="10" fill="#D61405" />
<rect x="780" y="30" width="10" height="10" fill="#D61405" />
<rect x="790" y="30" width="10" height="10" fill="#D61405" />
<rect x="20" y="40" width="10" height="10" fill="#D61405" />
<rect x="30" y="40" width="10" height="10" fill="#D61405" />
<rect x="80" y="40" width="10" height="10" fill="#D61405" />
<rect x="90" y="40" width="10" height="10" fill="#D61405" />
<rect x="120" y="40" width="10" height="10" fill="#D61405" />
<rect x="130" y="40" width="10" height="10" fill="#D61405" />
<rect x="140" y="40" width="10" height="10" fill="#D61405" />
<rect x="150" y="40" width="10" height="10" fill="#D61405" />
<rect x="200" y="40" width="10" height="10" fill="#D61405" />
<rect x="210" y="40" width="10" height="10" fill="#D61405" />
<rect x="240" y="40" width="10" height="10" fill="#D61405" />
<rect x="250" y="40" width="10" height="10" fill="#D61405" />
<rect x="260" y="40" width="10" height="10" fill="#D61405" />
<rect x="270" y="40" width="10" height="10" fill="#D61405" />
<rect x="320" y="40" width="10" height="10" fill="#D61405" />
<rect x="330" y="40" width="10" height="10" fill="#D61405" />
<rect x="340" y="40" width="10" height="10" fill="#D61405" />
<rect x="350" y="40" width="10" height="10" fill="#D61405" />
<rect x="360" y="40" width="10" height="10" fill="#D61405" />
<rect x="370" y="40" width="10" height="10" fill="#D61405" />
<rect x="400" y="40" width="10" height="10" fill="#D61405" />
<rect x="410" y="40" width="10" height="10" fill="#D61405" />
<rect x="440" y="40" width="10" height="10" fill="#D61405" />
<rect x="450" y="40" width="10" height="10" fill="#D61405" />
<rect x="460" y="40" width="10" height="10" fill="#D61405" />
<rect x="470" y="40" width="10" height="10" fill="#D61405" />
<rect x="480" y="40" width="10" height="10" fill="#D61405" />
<rect x="490" y="40" width="10" height="10" fill="#D61405" />
<rect x="540" y="40" width="10" height="10" fill="#D61405" />
<rect x="550" y="40" width="10" height="10" fill="#D61405" />
<rect x="560" y="40" width="10" height="10" fill="#D61405" />
<rect x="570" y="40" width="10" height="10" fill="#D61405" />
<rect x="620" y="40" width="10" height="10" fill="#D61405" />
<rect x="630" y="40" width="10" height="10" fill="#D61405" />
<rect x="660" y="40" width="10" height="10" fill="#D61405" />
<rect x="670" y="40" width="10" height="10" fill="#D61405" />
<rect x="680" y="40" width="10" height="10" fill="#D61405" />
<rect x="690" y="40" width="10" height="10" fill="#D61405" />
<rect x="720" y="40" width="10" height="10" fill="#D61405" />
<rect x="730" y="40" width="10" height="10" fill="#D61405" />
<rect x="760" y="40" width="10" height="10" fill="#D61405" />
<rect x="770" y="40" width="10" height="10" fill="#D61405" />
<rect x="20" y="50" width="10" height="10" fill="#D61405" />
<rect x="30" y="50" width="10" height="10" fill="#D61405" />
<rect x="80" y="50" width="10" height="10" fill="#D61405" />
<rect x="90" y="50" width="10" height="10" fill="#D61405" />
<rect x="120" y="50" width="10" height="10" fill="#D61405" />
<rect x="130" y="50" width="10" height="10" fill="#D61405" />
<rect x="140" y="50" width="10" height="10" fill="#D61405" />
<rect x="150" y="50" width="10" height="10" fill="#D61405" />
<rect x="200" y="50" width="10" height="10" fill="#D61405" />
<rect x="210" y="50" width="10" height="10" fill="#D61405" />
<rect x="240" y="50" width="10" height="10" fill="#D61405" />
<rect x="250" y="50" width="10" height="10" fill="#D61405" />
<rect x="260" y="50" width="10" height="10" fill="#D61405" />
<rect x="270" y="50" width="10" height="10" fill="#D61405" />
<rect x="320" y="50" width="10" height="10" fill="#D61405" />
<rect x="330" y="50" width="10" height="10" fill="#D61405" />
<rect x="340" y="50" width="10" height="10" fill="#D61405" />
<rect x="350" y="50" width="10" height="10" fill="#D61405" />
<rect x="360" y="50" width="10" height="10" fill="#D61405" />
<rect x="370" y="50" width="10" height="10" fill="#D61405" />
<rect x="400" y="50" width="10" height="10" fill="#D61405" />
<rect x="410" y="50" width="10" height="10" fill="#D61405" />
<rect x="440" y="50" width="10" height="10" fill="#D61405" />
<rect x="450" y="50" width="10" height="10" fill="#D61405" />
<rect x="460" y="50" width="10" height="10" fill="#D61405" />
<rect x="470" y="50" width="10" height="10" fill="#D61405" />
<rect x="480" y="50" width="10" height="10" fill="#D61405" />
<rect x="490" y="50" width="10" height="10" fill="#D61405" />
<rect x="540" y="50" width="10" height="10" fill="#D61405" />
<rect x="550" y="50" width="10" height="10" fill="#D61405" />
<rect x="560" y="50" width="10" height="10" fill="#D61405" />
<rect x="570" y="50" width="10" height="10" fill="#D61405" />
<rect x="620" y="50" width="10" height="10" fill="#D61405" />
<rect x="630" y="50" width="10" height="10" fill="#D61405" />
<rect x="660" y="50" width="10" height="10" fill="#D61405" />
<rect x="670" y="50" width="10" height="10" fill="#D61405" />
<rect x="680" y="50" width="10" height="10" fill="#D61405" />
<rect x="690" y="50" width="10" height="10" fill="#D61405" />
<rect x="720" y="50" width="10" height="10" fill="#D61405" />
<rect x="730" y="50" width="10" height="10" fill="#D61405" />
<rect x="760" y="50" width="10" height="10" fill="#D61405" />
<rect x="770" y="50" width="10" height="10" fill="#D61405" />
<rect x="20" y="60" width="10" height="10" fill="#D61405" />
<rect x="30" y="60" width="10" height="10" fill="#D61405" />
<rect x="40" y="60" width="10" height="10" fill="#D61405" />
<rect x="50" y="60" width="10" height="10" fill="#D61405" />
<rect x="60" y="60" width="10" height="10" fill="#D61405" />
<rect x="70" y="60" width="10" height="10" fill="#D61405" />
<rect x="100" y="60" width="10" height="10" fill="#D61405" />
<rect x="110" y="60" width="10" height="10" fill="#D61405" />
<rect x="120" y="60" width="10" height="10" fill="#D61405" />
<rect x="130" y="60" width="10" height="10" fill="#D61405" />
<rect x="160" y="60" width="10" height="10" fill="#D61405" />
<rect x="170" y="60" width="10" height="10" fill="#D61405" />
<rect x="180" y="60" width="10" height="10" fill="#D61405" />
<rect x="190" y="60" width="10" height="10" fill="#D61405" />
<rect x="220" y="60" width="10" height="10" fill="#D61405" />
<rect x="230" y="60" width="10" height="10" fill="#D61405" />
<rect x="240" y="60" width="10" height="10" fill="#D61405" />
<rect x="250" y="60" width="10" height="10" fill="#D61405" />
<rect x="280" y="60" width="10" height="10" fill="#D61405" />
<rect x="290" y="60" width="10" height="10" fill="#D61405" />
<rect x="300" y="60" width="10" height="10" fill="#D61405" />
<rect x="310" y="60" width="10" height="10" fill="#D61405" />
<rect x="320" y="60" width="10" height="10" fill="#D61405" />
<rect x="330" y="60" width="10" height="10" fill="#D61405" />
<rect x="340" y="60" width="10" height="10" fill="#D61405" />
<rect x="350" y="60" width="10" height="10" fill="#D61405" />
<rect x="380" y="60" width="10" height="10" fill="#D61405" />
<rect x="390" y="60" width="10" height="10" fill="#D61405" />
<rect x="400" y="60" width="10" height="10" fill="#D61405" />
<rect x="410" y="60" width="10" height="10" fill="#D61405" />
<rect x="420" y="60" width="10" height="10" fill="#D61405" />
<rect x="430" y="60" width="10" height="10" fill="#D61405" />
<rect x="460" y="60" width="10" height="10" fill="#D61405" />
<rect x="470" y="60" width="10" height="10" fill="#D61405" />
<rect x="500" y="60" width="10" height="10" fill="#D61405" />
<rect x="510" y="60" width="10" height="10" fill="#D61405" />
<rect x="520" y="60" width="10" height="10" fill="#D61405" />
<rect x="530" y="60" width="10" height="10" fill="#D61405" />
<rect x="540" y="60" width="10" height="10" fill="#D61405" />
<rect x="550" y="60" width="10" height="10" fill="#D61405" />
<rect x="560" y="60" width="10" height="10" fill="#D61405" />
<rect x="570" y="60" width="10" height="10" fill="#D61405" />
<rect x="600" y="60" width="10" height="10" fill="#D61405" />
<rect x="610" y="60" width="10" height="10" fill="#D61405" />
<rect x="620" y="60" width="10" height="10" fill="#D61405" />
<rect x="630" y="60" width="10" height="10" fill="#D61405" />
<rect x="640" y="60" width="10" height="10" fill="#D61405" />
<rect x="650" y="60" width="10" height="10" fill="#D61405" />
<rect x="660" y="60" width="10" height="10" fill="#D61405" />
<rect x="670" y="60" width="10" height="10" fill="#D61405" />
<rect x="680" y="60" width="10" height="10" fill="#D61405" />
<rect x="690" y="60" width="10" height="10" fill="#D61405" />
<rect x="700" y="60" width="10" height="10" fill="#D61405" />
<rect x="710" y="60" width="10" height="10" fill="#D61405" />
<rect x="760" y="60" width="10" height="10" fill="#D61405" />
<rect x="770" y="60" width="10" height="10" fill="#D61405" />
<rect x="780" y="60" width="10" height="10" fill="#D61405" />
<rect x="790" y="60" width="10" height="10" fill="#D61405" />
<rect x="20" y="70" width="10" height="10" fill="#D61405" />
<rect x="30" y="70" width="10" height="10" fill="#D61405" />
<rect x="40" y="70" width="10" height="10" fill="#D61405" />
<rect x="50" y="70" width="10" height="10" fill="#D61405" />
<rect x="60" y="70" width="10" height="10" fill="#D61405" />
<rect x="70" y="70" width="10" height="10" fill="#D61405" />
<rect x="100" y="70" width="10" height="10" fill="#D61405" />
<rect x="110" y="70" width="10" height="10" fill="#D61405" />
<rect x="120" y="70" width="10" height="10" fill="#D61405" />
<rect x="130" y="70" width="10" height="10" fill="#D61405" />
<rect x="160" y="70" width="10" height="10" fill="#D61405" />
<rect x="170" y="70" width="10" height="10" fill="#D61405" />
<rect x="180" y="70" width="10" height="10" fill="#D61405" />
<rect x="190" y="70" width="10" height="10" fill="#D61405" />
<rect x="220" y="70" width="10" height="10" fill="#D61405" />
<rect x="230" y="70" width="10" height="10" fill="#D61405" />
<rect x="240" y="70" width="10" height="10" fill="#D61405" />
<rect x="250" y="70" width="10" height="10" fill="#D61405" />
<rect x="280" y="70" width="10" height="10" fill="#D61405" />
<rect x="290" y="70" width="10" height="10" fill="#D61405" />
<rect x="300" y="70" width="10" height="10" fill="#D61405" />
<rect x="310" y="70" width="10" height="10" fill="#D61405" />
<rect x="320" y="70" width="10" height="10" fill="#D61405" />
<rect x="330" y="70" width="10" height="10" fill="#D61405" />
<rect x="340" y="70" width="10" height="10" fill="#D61405" />
<rect x="350" y="70" width="10" height="10" fill="#D61405" />
<rect x="380" y="70" width="10" height="10" fill="#D61405" />
<rect x="390" y="70" width="10" height="10" fill="#D61405" />
<rect x="400" y="70" width="10" height="10" fill="#D61405" />
<rect x="410" y="70" width="10" height="10" fill="#D61405" />
<rect x="420" y="70" width="10" height="10" fill="#D61405" />
<rect x="430" y="70" width="10" height="10" fill="#D61405" />
<rect x="460" y="70" width="10" height="10" fill="#D61405" />
<rect x="470" y="70" width="10" height="10" fill="#D61405" />
<rect x="500" y="70" width="10" height="10" fill="#D61405" />
<rect x="510" y="70" width="10" height="10" fill="#D61405" />
<rect x="520" y="70" width="10" height="10" fill="#D61405" />
<rect x="530" y="70" width="10" height="10" fill="#D61405" />
<rect x="540" y="70" width="10" height="10" fill="#D61405" />
<rect x="550" y="70" width="10" height="10" fill="#D61405" />
<rect x="560" y="70" width="10" height="10" fill="#D61405" />
<rect x="570" y="70" width="10" height="10" fill="#D61405" />
<rect x="600" y="70" width="10" height="10" fill="#D61405" />
<rect x="610" y="70" width="10" height="10" fill="#D61405" />
<rect x="620" y="70" width="10" height="10" fill="#D61405" />
<rect x="630" y="70" width="10" height="10" fill="#D61405" />
<rect x="640" y="70" width="10" height="10" fill="#D61405" />
<rect x="650" y="70" width="10" height="10" fill="#D61405" />
<rect x="660" y="70" width="10" height="10" fill="#D61405" />
<rect x="670" y="70" width="10" height="10" fill="#D61405" />
<rect x="680" y="70" width="10" height="10" fill="#D61405" />
<rect x="690" y="70" width="10" height="10" fill="#D61405" />
<rect x="700" y="70" width="10" height="10" fill="#D61405" />
<rect x="710" y="70" width="10" height="10" fill="#D61405" />
<rect x="760" y="70" width="10" height="10" fill="#D61405" />
<rect x="770" y="70" width="10" height="10" fill="#D61405" />
<rect x="780" y="70" width="10" height="10" fill="#D61405" />
<rect x="790" y="70" width="10" height="10" fill="#D61405" />
<rect x="0" y="80" width="10" height="10" fill="#D61405" />
<rect x="10" y="80" width="10" height="10" fill="#D61405" />
<rect x="20" y="80" width="10" height="10" fill="#D61405" />
<rect x="30" y="80" width="10" height="10" fill="#D61405" />
<rect x="40" y="80" width="10" height="10" fill="#D61405" />
<rect x="50" y="80" width="10" height="10" fill="#D61405" />
<rect x="80" y="80" width="10" height="10" fill="#D61405" />
<rect x="90" y="80" width="10" height="10" fill="#D61405" />
<rect x="100" y="80" width="10" height="10" fill="#D61405" />
<rect x="110" y="80" width="10" height="10" fill="#D61405" />
<rect x="120" y="80" width="10" height="10" fill="#D61405" />
<rect x="130" y="80" width="10" height="10" fill="#D61405" />
<rect x="140" y="80" width="10" height="10" fill="#D61405" />
<rect x="150" y="80" width="10" height="10" fill="#D61405" />
<rect x="160" y="80" width="10" height="10" fill="#D61405" />
<rect x="170" y="80" width="10" height="10" fill="#D61405" />
<rect x="180" y="80" width="10" height="10" fill="#D61405" />
<rect x="190" y="80" width="10" height="10" fill="#D61405" />
<rect x="200" y="80" width="10" height="10" fill="#D61405" />
<rect x="210" y="80" width="10" height="10" fill="#D61405" />
<rect x="220" y="80" width="10" height="10" fill="#D61405" />
<rect x="230" y="80" width="10" height="10" fill="#D61405" />
<rect x="260" y="80" width="10" height="10" fill="#D61405" />
<rect x="270" y="80" width="10" height="10" fill="#D61405" />
<rect x="280" y="80" width="10" height="10" fill="#D61405" />
<rect x="290" y="80" width="10" height="10" fill="#D61405" />
<rect x="300" y="80" width="10" height="10" fill="#D61405" />
<rect x="310" y="80" width="10" height="10" fill="#D61405" />
<rect x="320" y="80" width="10" height="10" fill="#D61405" />
<rect x="330" y="80" width="10" height="10" fill="#D61405" />
<rect x="360" y="80" width="10" height="10" fill="#D61405" />
<rect x="370" y="80" width="10" height="10" fill="#D61405" />
<rect x="380" y="80" width="10" height="10" fill="#D61405" />
<rect x="390" y="80" width="10" height="10" fill="#D61405" />
<rect x="400" y="80" width="10" height="10" fill="#D61405" />
<rect x="410" y="80" width="10" height="10" fill="#D61405" />
<rect x="440" y="80" width="10" height="10" fill="#D61405" />
<rect x="450" y="80" width="10" height="10" fill="#D61405" />
<rect x="460" y="80" width="10" height="10" fill="#D61405" />
<rect x="470" y="80" width="10" height="10" fill="#D61405" />
<rect x="480" y="80" width="10" height="10" fill="#D61405" />
<rect x="490" y="80" width="10" height="10" fill="#D61405" />
<rect x="500" y="80" width="10" height="10" fill="#D61405" />
<rect x="510" y="80" width="10" height="10" fill="#D61405" />
<rect x="520" y="80" width="10" height="10" fill="#D61405" />
<rect x="530" y="80" width="10" height="10" fill="#D61405" />
<rect x="540" y="80" width="10" height="10" fill="#D61405" />
<rect x="550" y="80" width="10" height="10" fill="#D61405" />
<rect x="560" y="80" width="10" height="10" fill="#D61405" />
<rect x="570" y="80" width="10" height="10" fill="#D61405" />
<rect x="580" y="80" width="10" height="10" fill="#D61405" />
<rect x="590" y="80" width="10" height="10" fill="#D61405" />
<rect x="640" y="80" width="10" height="10" fill="#D61405" />
<rect x="650" y="80" width="10" height="10" fill="#D61405" />
<rect x="660" y="80" width="10" height="10" fill="#D61405" />
<rect x="670" y="80" width="10" height="10" fill="#D61405" />
<rect x="700" y="80" width="10" height="10" fill="#D61405" />
<rect x="710" y="80" width="10" height="10" fill="#D61405" />
<rect x="720" y="80" width="10" height="10" fill="#D61405" />
<rect x="730" y="80" width="10" height="10" fill="#D61405" />
<rect x="740" y="80" width="10" height="10" fill="#D61405" />
<rect x="750" y="80" width="10" height="10" fill="#D61405" />
<rect x="760" y="80" width="10" height="10" fill="#D61405" />
<rect x="770" y="80" width="10" height="10" fill="#D61405" />
<rect x="780" y="80" width="10" height="10" fill="#D61405" />
<rect x="790" y="80" width="10" height="10" fill="#D61405" />
<rect x="0" y="90" width="10" height="10" fill="#D61405" />
<rect x="10" y="90" width="10" height="10" fill="#D61405" />
<rect x="20" y="90" width="10" height="10" fill="#D61405" />
<rect x="30" y="90" width="10" height="10" fill="#D61405" />
<rect x="40" y="90" width="10" height="10" fill="#D61405" />
<rect x="50" y="90" width="10" height="10" fill="#D61405" />
<rect x="80" y="90" width="10" height="10" fill="#D61405" />
<rect x="90" y="90" width="10" height="10" fill="#D61405" />
<rect x="100" y="90" width="10" height="10" fill="#D61405" />
<rect x="110" y="90" width="10" height="10" fill="#D61405" />
<rect x="120" y="90" width="10" height="10" fill="#D61405" />
<rect x="130" y="90" width="10" height="10" fill="#D61405" />
<rect x="140" y="90" width="10" height="10" fill="#D61405" />
<rect x="150" y="90" width="10" height="10" fill="#D61405" />
<rect x="160" y="90" width="10" height="10" fill="#D61405" />
<rect x="170" y="90" width="10" height="10" fill="#D61405" />
<rect x="180" y="90" width="10" height="10" fill="#D61405" />
<rect x="190" y="90" width="10" height="10" fill="#D61405" />
<rect x="200" y="90" width="10" height="10" fill="#D61405" />
<rect x="210" y="90" width="10" height="10" fill="#D61405" />
<rect x="220" y="90" width="10" height="10" fill="#D61405" />
<rect x="230" y="90" width="10" height="10" fill="#D61405" />
<rect x="260" y="90" width="10" height="10" fill="#D61405" />
<rect x="270" y="90" width="10" height="10" fill="#D61405" />
<rect x="280" y="90" width="10" height="10" fill="#D61405" />
<rect x="290" y="90" width="10" height="10" fill="#D61405" />
<rect x="300" y="90" width="10" height="10" fill="#D61405" />
<rect x="310" y="90" width="10" height="10" fill="#D61405" />
<rect x="320" y="90" width="10" height="10" fill="#D61405" />
<rect x="330" y="90" width="10" height="10" fill="#D61405" />
<rect x="360" y="90" width="10" height="10" fill="#D61405" />
<rect x="370" y="90" width="10" height="10" fill="#D61405" />
<rect x="380" y="90" width="10" height="10" fill="#D61405" />
<rect x="390" y="90" width="10" height="10" fill="#D61405" />
<rect x="400" y="90" width="10" height="10" fill="#D61405" />
<rect x="410" y="90" width="10" height="10" fill="#D61405" />
<rect x="440" y="90" width="10" height="10" fill="#D61405" />
<rect x="450" y="90" width="10" height="10" fill="#D61405" />
<rect x="460" y="90" width="10" height="10" fill="#D61405" />
<rect x="470" y="90" width="10" height="10" fill="#D61405" />
<rect x="480" y="90" width="10" height="10" fill="#D61405" />
<rect x="490" y="90" width="10" height="10" fill="#D61405" />
<rect x="500" y="90" width="10" height="10" fill="#D61405" />
<rect x="510" y="90" width="10" height="10" fill="#D61405" />
<rect x="520" y="90" width="10" height="10" fill="#D61405" />
<rect x="530" y="90" width="10" height="10" fill="#D61405" />
<rect x="540" y="90" width="10" height="10" fill="#D61405" />
<rect x="550" y="90" width="10" height="10" fill="#D61405" />
<rect x="560" y="90" width="10" height="10" fill="#D61405" />
<rect x="570" y="90" width="10" height="10" fill="#D61405" />
<rect x="580" y="90" width="10" height="10" fill="#D61405" />
<rect x="590" y="90" width="10" height="10" fill="#D61405" />
<rect x="640" y="90" width="10" height="10" fill="#D61405" />
<rect x="650" y="90" width="10" height="10" fill="#D61405" />
<rect x="660" y="90" width="10" height="10" fill="#D61405" />
<rect x="670" y="90" width="10" height="10" fill="#D61405" />
<rect x="700" y="90" width="10" height="10" fill="#D61405" />
<rect x="710" y="90" width="10" height="10" fill="#D61405" />
<rect x="720" y="90" width="10" height="10" fill="#D61405" />
<rect x="730" y="90" width="10" height="10" fill="#D61405" />
<rect x="740" y="90" width="10" height="10" fill="#D61405" />
<rect x="750" y="90" width="10" height="10" fill="#D61405" />
<rect x="760" y="90" width="10" height="10" fill="#D61405" />
<rect x="770" y="90" width="10" height="10" fill="#D61405" />
<rect x="780" y="90" width="10" height="10" fill="#D61405" />
<rect x="790" y="90" width="10" height="10" fill="#D61405" />
</svg>